Coordinates
version=1
nRows=24
nColumns=24
inDegrees=yes

Units are S.I. units (second, meters, Newtons, ...)
Angles are in degrees.

endheader
time	pelvis_tilt	pelvis_list	pelvis_rotation	pelvis_tx	pelvis_ty	pelvis_tz	hip_flexion_r	hip_adduction_r	hip_rotation_r	knee_angle_r	ankle_angle_r	subtalar_angle_r	mtp_angle_r	hip_flexion_l	hip_adduction_l	hip_rotation_l	knee_angle_l	ankle_angle_l	subtalar_angle_l	mtp_angle_l	lumbar_extension	lumbar_bending	lumbar_rotation
      1.75300000	      0.83668967	      9.65557726	     -4.91151847	      1.40355526	      1.00545945	      0.26642058	     16.32920403	    -13.22232745	      2.34823416	    -67.42224705	      7.88427634	     -1.95557489	      6.52809850	      7.49556922	     15.30690539	      9.49972280	    -15.59775251	      3.37700458	    -21.58787614	     -2.29465310	    -11.18197680	     -5.90247108	      0.66784096
      1.75716667	      0.93238381	      9.50782786	     -4.83878848	      1.40808939	      1.00638038	      0.26614338	     16.75017225	    -13.03522006	      2.28097852	    -66.86924501	      8.35072365	     -2.01327793	      6.36053597	      6.82642472	     15.17744689	      9.74082363	    -15.09982000	      3.35985074	    -21.63402670	     -2.28977173	    -11.30776388	     -5.66316560	      0.42708900
      1.76133333	      0.97181359	      9.38651556	     -4.73799008	      1.41258604	      1.00718739	      0.26582183	     17.22681622	    -12.88223737	      2.19660681	    -66.29260292	      8.81637953	     -2.05987102	      5.29580293	      6.19742679	     15.07885763	     10.09822231	    -14.54944084	      3.16458316	    -21.89217648	     -2.27970890	    -11.35839592	     -5.45232910	      0.19116058
      1.76550000	      1.06539175	      9.24849462	     -4.67843628	      1.41705811	      1.00797734	      0.26561607	     17.64158399	    -12.69311200	      2.15310595	    -65.67665809	      9.23461573	     -2.22398179	      5.19726777	      5.56821632	     14.94278528	     10.24037781	    -14.10915619	      3.26994032	    -21.77579699	     -2.27472504	    -11.50231916	     -5.24101808	     -0.03147509
      1.76966667	      1.14833398	      9.13282175	     -4.59544680	      1.42153937	      1.00872748	      0.26537086	     18.05007518	    -12.54384938	      2.07743066	    -65.02097435	      9.62779111	     -2.40407915	      4.98920764	      4.92700589	     14.83490301	     10.46727948	    -13.61807878	      3.22516681	    -21.82232589	     -2.27365657	    -11.60415916	     -5.03994677	     -0.34428236
      1.77383333	      1.20916788	      9.00074994	     -4.50776116	      1.42604009	      1.00940801	      0.26512402	     18.46346327	    -12.37230480	      2.00760830	    -64.32717921	     10.00428931	     -2.54557901	      4.53756769	      4.30289014	     14.71017830	     10.74433618	    -13.12250024	      3.17072336	    -21.97955617	     -2.27311431	    -11.68923176	     -4.81091355	     -0.61527995
      1.77800000	      1.25055575	      8.85672661	     -4.40138324	      1.43048818	      1.01001542	      0.26490405	     18.88046462	    -12.18469912	      1.91736920	    -63.58896838	     10.32395924	     -2.80989825	      4.45967453	      3.74044987	     14.55909624	     10.91569348	    -12.71007602	      3.22705398	    -21.89490902	     -2.27082732	    -11.75854196	     -4.60900798	     -0.73717564
      1.78216667	      1.33361872	      8.76930217	     -4.30704038	      1.43493290	      1.01060640	      0.26468770	     19.26046994	    -12.06840193	      1.84826764	    -62.83886901	     10.59933007	     -3.06858454	      4.23570515	      3.10363845	     14.47212298	     11.17311399	    -12.21402853	      3.17143003	    -21.96445072	     -2.27167927	    -11.87529865	     -4.43058935	     -1.10206531
      1.78633333	      1.38393356	      8.65346135	     -4.20578087	      1.43939475	      1.01111910	      0.26448256	     19.64724972	    -11.91644331	      1.77028603	    -62.03974818	     10.86703309	     -3.35802252	      3.99059505	      2.51418141	     14.34975736	     11.40775422	    -11.75101487	      3.14948444	    -22.03844361	     -2.27214181	    -11.94502111	     -4.23501936	     -1.34426309
      1.79050000	      1.41721195	      8.52410309	     -4.09860967	      1.44380886	      1.01155911	      0.26429693	     20.03957109	    -11.74763516	      1.69006557	    -61.20194374	     11.08393923	     -3.64664030	      3.88944086	      1.97199490	     14.20801450	     11.60636644	    -11.35175177	      3.20888079	    -22.02765401	     -2.27017248	    -12.00959476	     -4.04071521	     -1.50651924
      1.79466667	      1.48139511	      8.43303197	     -3.99768151	      1.44826252	      1.01198348	      0.26410705	     20.39529864	    -11.62762384	      1.62260800	    -60.34694994	     11.24074728	     -3.97960093	      3.73880474	      1.37397628	     14.10775730	     11.85299131	    -10.89554429	      3.20758551	    -22.07587185	     -2.26664428	    -12.10141577	     -3.85608885	     -1.80237289
      1.79883333	      1.47823461	      8.32539864	     -3.86094400	      1.45265470	      1.01226267	      0.26391613	     20.79922919	    -11.48787917	      1.53288845	    -59.45766893	     11.45123698	     -4.30327511	      3.63735467	      0.88604102	     13.98161654	     12.06731114	    -10.52005903	      3.22770812	    -22.08030178	     -2.26285103	    -12.12879963	     -3.68491890	     -1.99217870
      1.80300000	      1.52630659	      8.23678128	     -3.74441308	      1.45704246	      1.01257278	      0.26376366	     21.14583666	    -11.36973699	      1.46383120	    -58.53691396	     11.57024582	     -4.66352479	      3.52101634	      0.32991212	     13.87463271	     12.30235508	    -10.10771103	      3.24390925	    -22.10658164	     -2.25893699	    -12.20739830	     -3.52902213	     -2.25957166
      1.80716667	      1.55378633	      8.14284697	     -3.61772633	      1.46148870	      1.01282211	      0.26360500	     21.48543303	    -11.25322833	      1.37912934	    -57.57779899	     11.68602858	     -5.00274049	      3.41017739	     -0.21151658	     13.75668223	     12.53438624	     -9.68826778	      3.25185314	    -22.13414266	     -2.25493371	    -12.26347992	     -3.35564505	     -2.50196189
      1.81133333	      1.58226972	      8.07672379	     -3.51348851	      1.46589077	      1.01298778	      0.26346800	     21.83627644	    -11.16237945	      1.32815024	    -56.60928341	     11.71486986	     -5.35617155	      3.23173823	     -0.74985874	     13.66888210	     12.78373661	     -9.26061101	      3.25472206	    -22.23622775	     -2.24928047	    -12.30984071	     -3.20265304	     -2.84020262
      1.81550000	      1.58938067	      7.99374711	     -3.37347134	      1.47024471	      1.01310729	      0.26332972	     22.18068654	    -11.05861609	      1.24999469	    -55.59628262	     11.79247567	     -5.68928499	      3.11469737	     -1.22978034	     13.55735443	     13.00994996	     -8.91349770	      3.28812796	    -22.23831217	     -2.24159712	    -12.35399360	     -3.06094700	     -3.04495804
      1.81966667	      1.58386463	      7.93303797	     -3.24206589	      1.47462401	      1.01315543	      0.26320204	     22.53212620	    -10.98248490	      1.17862259	    -54.57210036	     11.83980397	     -6.01620317	      3.00777208	     -1.71374295	     13.46234877	     13.23345792	     -8.51979746	      3.31992062	    -22.22874722	     -2.23369312	    -12.39308175	     -2.92456644	     -3.27364284
      1.82383333	      1.59088308	      7.90082726	     -3.14001358	      1.47898696	      1.01314499	      0.26311904	     22.87481817	    -10.92707085	      1.15556483	    -53.52236792	     11.80965011	     -6.34276356	      2.80425484	     -2.20610034	     13.40026058	     13.46663879	     -8.13069728	      3.32967000	    -22.32643911	     -2.22178777	    -12.40528617	     -2.82123515	     -3.63937913
      1.82800000	      1.58276233	      7.83131867	     -2.97779414	      1.48334978	      1.01313903	      0.26298787	     23.18057700	    -10.85577526	      1.05763305	    -52.41789194	     11.82687689	     -6.62476043	      2.69620293	     -2.66677307	     13.28933963	     13.69455949	     -7.78679476	      3.38420632	    -22.29328742	     -2.21229030	    -12.43171143	     -2.68959943	     -3.82368718
      1.83216667	      1.54926906	      7.79364834	     -2.86109163	      1.48775017	      1.01300652	      0.26291556	     23.52593094	    -10.80393279	      1.01261688	    -51.30651612	     11.78371457	     -6.91970269	      2.58090372	     -3.10138817	     13.21090382	     13.89361440	     -7.43015867	      3.43843528	    -22.29222802	     -2.20212411	    -12.41337459	     -2.58510937	     -4.06928658
      1.83633333	      1.55471122	      7.75680999	     -2.74161217	      1.49211719	      1.01291385	      0.26285105	     23.80923023	    -10.76072536	      0.96234762	    -50.16244092	     11.73003835	     -7.17497394	      2.46572728	     -3.58099035	     13.12941751	     14.09152942	     -7.05879333	      3.49079919	    -22.27927436	     -2.19099830	    -12.45146207	     -2.48379234	     -4.32860971
      1.84050000	      1.54462988	      7.74322341	     -2.64173797	      1.49646150	      1.01272777	      0.26281891	     24.11438666	    -10.73561929	      0.94065634	    -49.00817164	     11.64285828	     -7.42317005	      2.30293406	     -4.03941223	     13.07132560	     14.28711848	     -6.68717891	      3.54100517	    -22.31208182	     -2.17515999	    -12.46867751	     -2.40690731	     -4.64101319
      1.84466667	      1.48516284	      7.72214181	     -2.49382654	      1.50082823	      1.01245645	      0.26274280	     24.43728890	    -10.72332997	      0.86652196	    -47.82116174	     11.58512861	     -7.58471316	      2.21023383	     -4.43082095	     12.99844013	     14.48531958	     -6.36224932	      3.61416577	    -22.25851079	     -2.16529891	    -12.43412934	     -2.32891537	     -4.82658224
      1.84883333	      1.46261008	      7.71554720	     -2.40120562	      1.50518329	      1.01219409	      0.26274095	     24.72343941	    -10.70891602	      0.84751683	    -46.60448480	     11.47239110	     -7.76279985	      2.12192450	     -4.87095473	     12.93960347	     14.64404118	     -5.99458422	      3.67612843	    -22.20374423	     -2.15551965	    -12.43793022	     -2.27040546	     -5.04094539
